<?xml version="1.0" encoding="UTF-8"?>
<!DOCTYPE svg PUBLIC "-//W3C//DTD SVG 1.1//EN" "http://www.w3.org/Graphics/SVG/1.1/DTD/svg11.dtd">
<!-- Creator: CorelDRAW -->
<svg xmlns="http://www.w3.org/2000/svg" xml:space="preserve" width="210mm" height="297mm" version="1.1" style="shape-rendering:geometricPrecision; text-rendering:geometricPrecision; image-rendering:optimizeQuality; fill-rule:evenodd; clip-rule:evenodd"
viewBox="0 0 21000 29700"
 xmlns:xlink="http://www.w3.org/1999/xlink"
 xmlns:xodm="http://www.corel.com/coreldraw/odm/2003">
 <defs>
  <style type="text/css">
   <![CDATA[
    .str0 {stroke:#013BCD;stroke-width:350;stroke-linecap:round;stroke-linejoin:round;stroke-miterlimit:22.9256}
    .str1 {stroke:#C9011D;stroke-width:350;stroke-linecap:round;stroke-linejoin:round;stroke-miterlimit:22.9256}
    .fil0 {fill:none}
   ]]>
  </style>
 </defs>
 <g id="Capa_x0020_1">
  <metadata id="CorelCorpID_0Corel-Layer"/>
  <g id="_105553236032736">
   <path class="fil0 str0" d="M14030.56 25582.81c-314.96,476.8 -1423.54,1962.66 -2217.82,2973.52 -338.39,494.25 -663.03,756.16 -1375.13,-182.34 -1275.5,-1624.24 -3400.66,-3519.72 -3104.02,-6407 239.14,-2398.6 4048.4,-4779.19 6706.54,-1952.25 878.48,1156.61 1047.82,2223.02 921.78,3166.87"/>
   <path class="fil0 str1" d="M13225.77 23332.24l0 1853.23c22.58,253.72 -103.3,459 -288.08,479.3l-1125.42 0 0 -1171.34c4.06,-439.22 -1221.05,-554.97 -1263.21,13.18l0 1158.16 -987.61 0c-243.85,-17.58 -437.03,-173.48 -431.35,-505.29l11.64 -1896.36c-390.61,-123.05 -572.95,-601.55 -338.22,-928.65 695.4,-588.68 422.56,-1088.65 711.44,-1078.62l3284.92 0c290.39,-22.17 -84.43,340.02 826.84,1308.3 77.91,370.75 -255.83,746.81 -847.45,714.35 -777.44,-135.18 -589.97,-456.37 -772.46,-485.6 -187.9,63.1 -126.5,462.99 -814.66,460.27 -669.05,55.44 -756.64,-473.08 -853.02,-446.18 -214.81,51.11 -186.09,549.83 -1197.39,456.13"/>
  </g>
 </g>
</svg>
