<?xml version="1.0" encoding="UTF-8"?>
<!DOCTYPE svg PUBLIC "-//W3C//DTD SVG 1.1//EN" "http://www.w3.org/Graphics/SVG/1.1/DTD/svg11.dtd">
<!-- Creator: CorelDRAW -->
<svg xmlns="http://www.w3.org/2000/svg" xml:space="preserve" width="210mm" height="297mm" version="1.1" style="shape-rendering:geometricPrecision; text-rendering:geometricPrecision; image-rendering:optimizeQuality; fill-rule:evenodd; clip-rule:evenodd"
viewBox="0 0 21000 29700"
 xmlns:xlink="http://www.w3.org/1999/xlink"
 xmlns:xodm="http://www.corel.com/coreldraw/odm/2003">
 <defs>
  <style type="text/css">
   <![CDATA[
    .str0 {stroke:#013BCD;stroke-width:808.48;stroke-linecap:round;stroke-linejoin:round;stroke-miterlimit:22.9256}
    .str1 {stroke:#C9011D;stroke-width:808.48;stroke-linecap:round;stroke-linejoin:round;stroke-miterlimit:22.9256}
    .fil0 {fill:none}
   ]]>
  </style>
 </defs>
 <g id="Capa_x0020_1">
  <metadata id="CorelCorpID_0Corel-Layer"/>
  <g id="_105553236785952">
   <path class="fil0 str0" d="M17392.57 18314.53c-727.55,1101.38 -3288.3,4533.63 -5123.03,6868.66 -781.68,1141.69 -1531.58,1746.68 -3176.48,-421.19 -2946.33,-3751.89 -7855.31,-8130.35 -7170.09,-14799.8 552.38,-5540.62 9351.56,-11039.64 15491.71,-4509.58 2029.23,2671.7 2420.4,5135.05 2129.24,7315.29"/>
   <path class="fil0 str1" d="M15533.54 13115.85l0 4280.86c52.15,586.09 -238.61,1060.27 -665.45,1107.16l-2599.64 0 0 -2705.74c9.38,-1014.57 -2820.56,-1281.95 -2917.94,30.44l0 2675.3 -2281.32 0c-563.28,-40.63 -1009.52,-400.73 -996.39,-1167.2l26.88 -4380.48c-902.29,-284.23 -1323.48,-1389.53 -781.28,-2145.13 1606.35,-1359.8 976.1,-2514.7 1643.4,-2491.55l7587.97 0c670.78,-51.2 -195.03,785.43 1909.94,3022.09 179.98,856.42 -590.95,1725.09 -1957.55,1650.11 -1795.85,-312.25 -1362.81,-1054.17 -1784.34,-1121.7 -434.04,145.76 -292.2,1069.48 -1881.82,1063.2 -1545.47,128.05 -1747.78,-1092.8 -1970.41,-1030.66 -496.22,118.06 -429.87,1270.09 -2765.91,1053.64"/>
  </g>
 </g>
</svg>
