<?xml version="1.0" encoding="UTF-8"?>
<!DOCTYPE svg PUBLIC "-//W3C//DTD SVG 1.1//EN" "http://www.w3.org/Graphics/SVG/1.1/DTD/svg11.dtd">
<!-- Creator: CorelDRAW -->
<svg xmlns="http://www.w3.org/2000/svg" xml:space="preserve" width="210mm" height="297mm" version="1.1" style="shape-rendering:geometricPrecision; text-rendering:geometricPrecision; image-rendering:optimizeQuality; fill-rule:evenodd; clip-rule:evenodd"
viewBox="0 0 21000 29700"
 xmlns:xlink="http://www.w3.org/1999/xlink"
 xmlns:xodm="http://www.corel.com/coreldraw/odm/2003">
 <defs>
  <style type="text/css">
   <![CDATA[
    .str0 {stroke:#013BCD;stroke-width:857.82;stroke-linecap:round;stroke-linejoin:round;stroke-miterlimit:22.9256}
    .str1 {stroke:#C9011D;stroke-width:857.82;stroke-linecap:round;stroke-linejoin:round;stroke-miterlimit:22.9256}
    .fil0 {fill:none}
   ]]>
  </style>
 </defs>
 <g id="Capa_x0020_1">
  <metadata id="CorelCorpID_0Corel-Layer"/>
  <g id="_105553236474080">
   <path class="fil0 str0" d="M17400.91 18087.37c-771.94,1168.6 -3488.97,4810.31 -5435.68,7287.85 -829.38,1211.36 -1625.04,1853.28 -3370.33,-446.9 -3126.14,-3980.86 -8334.72,-8626.53 -7607.68,-15703.01 586.09,-5878.76 9922.28,-11713.38 16437.15,-4784.79 2153.08,2834.74 2568.12,5448.43 2259.19,7761.73 -2686.13,-2687.37 -2178.48,2134.74 -4255.12,369.17"/>
   <path class="fil0 str1" d="M15428.44 12571.42l0 4542.11c55.33,621.86 -253.18,1124.98 -706.06,1174.73l-2758.3 0 0 -2870.87c9.95,-1076.48 -2992.7,-1360.18 -3096.02,32.31l0 2838.56 -2420.55 0c-597.65,-43.1 -1071.12,-425.18 -1057.2,-1238.43l28.53 -4647.81c-957.36,-301.58 -1404.26,-1474.34 -828.96,-2276.05 1704.38,-1442.79 1035.66,-2668.17 1743.69,-2643.61l8051.05 0c711.72,-54.32 -206.93,833.37 2026.5,3206.53 190.97,908.69 -627.01,1830.37 -2077.01,1750.82 -1905.45,-331.31 -1445.98,-1118.51 -1893.24,-1190.17 -460.52,154.66 -310.03,1134.76 -1996.66,1128.1 -1639.79,135.86 -1854.45,-1159.5 -2090.67,-1093.57 -526.5,125.27 -456.1,1347.61 -2934.7,1117.95"/>
  </g>
 </g>
</svg>
